<svg width="24" height="24" viewBox="0 0 24 24" fill="none" xmlns="http://www.w3.org/2000/svg">
<path d="M15.18 16.465C15.145 16.555 15.13 16.675 15.175 16.755C15.215 16.835 15.315 16.965 15.35 16.84C15.37 16.78 15.385 16.78 15.445 16.825C15.535 16.885 15.51 16.775 15.53 16.74C15.54 16.715 15.56 16.705 15.63 16.755C15.67 16.78 15.685 16.745 15.7 16.695C15.74 16.535 15.665 16.495 15.59 16.48C15.535 16.47 15.48 16.48 15.48 16.48C15.6 16.3 15.615 16.2 15.48 16.105C15.5 16.095 15.515 16.1 15.535 16.11C15.57 16.125 15.595 16.15 15.615 16.18C15.635 16.215 15.665 16.285 15.6 16.415C15.625 16.415 15.725 16.42 15.77 16.525C15.83 16.545 16.205 16.575 16.37 16.545C16.43 16.535 16.455 16.48 16.515 16.425C16.58 16.365 16.655 16.3 16.725 16.35C16.61 16.395 16.53 16.485 16.53 16.6C16.53 16.685 16.565 16.72 16.625 16.77C16.68 16.815 16.695 16.89 16.72 16.945C16.745 17.015 16.8 17.02 16.81 16.95C16.825 16.855 16.855 16.875 16.89 16.915C16.935 16.965 16.97 16.955 16.97 16.885C16.97 16.82 16.99 16.785 17.065 16.86C17.095 16.89 17.13 16.89 17.13 16.82C17.13 16.735 17.165 16.745 17.215 16.78C17.23 16.79 17.245 16.8 17.25 16.8C17.285 16.8 17.31 16.725 17.285 16.67C17.27 16.64 17.25 16.6 17.06 16.56C17 16.545 17.01 16.505 17.01 16.505C17.475 16.53 17.87 16.47 18.13 16.31C18.45 16.385 18.915 16.395 19.07 16.39C19.225 16.39 19.34 16.38 19.435 16.335C19.535 16.285 19.52 16.215 19.475 16.185C19.44 16.16 19.405 16.16 19.37 16.15C19.325 16.135 19.31 16.08 19.295 16.075C19.26 16.06 19.23 16.115 19.21 16.105C19.19 16.1 19.18 16.03 19.165 16.025C19.13 16.015 19.095 16.065 19.075 16.06C19.055 16.055 19.045 15.985 19.025 15.98C18.99 15.965 18.955 16.02 18.935 16.015C18.915 16.01 18.91 15.94 18.89 15.93C18.855 15.915 18.82 15.97 18.79 15.965C18.77 15.96 18.725 15.955 18.665 15.915C18.65 15.905 18.615 15.875 18.61 15.875C18.605 15.875 18.59 15.87 18.595 15.9C18.605 15.97 18.725 16.025 18.87 16.065C19.01 16.105 19.155 16.145 19.24 16.185C19.295 16.21 19.315 16.24 19.295 16.265C19.28 16.285 19.245 16.29 19.205 16.27C19.165 16.25 19.16 16.215 19.13 16.21C19.095 16.2 19.055 16.265 19.03 16.26C18.995 16.25 18.995 16.18 18.965 16.175C18.925 16.165 18.885 16.225 18.86 16.22C18.835 16.215 18.825 16.14 18.8 16.135C18.76 16.125 18.72 16.185 18.69 16.18C18.665 16.175 18.65 16.1 18.63 16.09C18.59 16.075 18.535 16.135 18.48 16.105C18.3 15.98 18.335 15.92 18.195 15.875C18.125 15.855 18.035 15.88 17.98 15.885C17.855 15.9 17.86 15.79 17.86 15.79C17.895 15.8 17.945 15.82 18.04 15.785C18.14 15.75 18.195 15.74 18.325 15.785C18.435 15.82 18.5 15.79 18.54 15.78C18.56 15.775 18.575 15.765 18.61 15.785C18.645 15.81 18.68 15.83 18.695 15.825C18.72 15.81 18.71 15.74 18.76 15.725C18.78 15.72 18.84 15.775 18.865 15.765C18.89 15.755 18.88 15.68 18.93 15.665C18.95 15.66 19.01 15.715 19.035 15.705C19.06 15.695 19.055 15.62 19.1 15.605C19.12 15.6 19.18 15.655 19.205 15.645C19.23 15.635 19.225 15.56 19.27 15.545C19.29 15.54 19.35 15.595 19.375 15.585C19.4 15.575 19.395 15.555 19.415 15.505C19.42 15.495 19.425 15.485 19.435 15.475C19.465 15.45 19.505 15.4 19.48 15.345C19.455 15.295 19.41 15.295 19.305 15.32C19.22 15.34 18.68 15.455 18.68 15.455C18.595 15.3 18.54 15.4 18.415 15.385C18.335 15.375 18.21 15.295 18.005 15.48C17.895 15.45 17.8 15.475 17.73 15.515C17.61 15.465 17.375 15.345 16.935 15.345C16.81 15.345 16.515 15.37 16.04 15.495C15.92 15.525 15.81 15.52 15.78 15.45C15.75 15.375 15.85 15.295 16.03 15.21C16.485 14.995 16.785 15.045 17.4 14.72C17.725 14.545 17.75 14.345 17.75 14.295C17.75 14.26 17.715 14.25 17.695 14.28C17.585 14.435 17.555 14.42 17.52 14.385C17.475 14.34 17.445 14.41 17.395 14.45C17.36 14.48 17.35 14.445 17.32 14.425C17.27 14.39 17.225 14.49 17.18 14.51C17.13 14.535 17.12 14.505 17.1 14.49C17.09 14.475 17.065 14.475 17.05 14.495C16.945 14.595 16.93 14.585 16.9 14.55C16.875 14.525 16.865 14.51 16.795 14.575C16.755 14.615 16.69 14.66 16.67 14.61C16.65 14.56 16.635 14.53 16.54 14.62C16.485 14.67 16.445 14.675 16.43 14.65C16.415 14.625 16.415 14.56 16.325 14.63C16.245 14.695 16.205 14.73 16.18 14.67C16.155 14.61 16.095 14.66 16.05 14.705C16.025 14.725 15.985 14.78 15.955 14.725C15.925 14.67 15.875 14.725 15.81 14.795C15.775 14.835 15.75 14.815 15.715 14.79C15.675 14.76 15.63 14.865 15.57 14.93C15.56 14.94 15.54 14.95 15.505 14.925C15.46 14.895 15.385 15.055 15.365 15.095C15.33 15.16 15.295 15.08 15.255 15.135C15.16 15.27 15.06 15.425 15.035 15.69C15 16.01 15.12 16.275 15.24 16.37C15.21 16.385 15.195 16.42 15.18 16.465ZM18.5 15.47C18.51 15.445 18.53 15.43 18.55 15.43C18.585 15.43 18.605 15.47 18.6 15.48L18.515 15.5C18.49 15.505 18.49 15.49 18.5 15.47ZM18.28 15.46C18.34 15.46 18.375 15.505 18.385 15.525C18.385 15.525 18.295 15.545 18.255 15.555C18.23 15.56 18.215 15.55 18.21 15.53C18.205 15.505 18.23 15.46 18.28 15.46ZM17.47 15.6C17.48 15.6 17.485 15.605 17.485 15.61C17.48 15.64 17.47 15.67 17.465 15.7C17.465 15.705 17.455 15.71 17.45 15.705C17.415 15.69 17.38 15.67 17.345 15.655C17.335 15.65 17.335 15.645 17.345 15.64C17.38 15.625 17.425 15.61 17.47 15.6ZM16.09 16.095C16.09 16.1 16.08 16.105 16.075 16.1C16.04 16.085 16.005 16.065 15.97 16.05C15.96 16.045 15.96 16.04 15.97 16.035C16.01 16.015 16.055 16 16.1 15.995C16.11 15.995 16.115 16 16.115 16.005C16.1 16.035 16.095 16.065 16.09 16.095ZM16.31 16.03C16.31 16.035 16.3 16.04 16.295 16.035C16.26 16.02 16.225 16 16.19 15.985C16.18 15.98 16.18 15.975 16.19 15.97C16.23 15.95 16.275 15.935 16.32 15.93C16.33 15.93 16.335 15.935 16.335 15.94C16.325 15.97 16.315 16 16.31 16.03ZM16.535 15.985C16.535 15.995 16.525 15.995 16.52 15.99C16.485 15.975 16.45 15.955 16.415 15.94C16.405 15.935 16.405 15.93 16.415 15.925C16.455 15.905 16.5 15.89 16.545 15.885C16.555 15.885 16.56 15.89 16.56 15.895C16.55 15.925 16.54 15.955 16.535 15.985ZM16.755 15.96C16.755 15.965 16.745 15.97 16.74 15.965C16.705 15.95 16.67 15.93 16.635 15.915C16.625 15.91 16.625 15.905 16.635 15.9C16.675 15.88 16.72 15.865 16.765 15.86C16.775 15.86 16.78 15.865 16.78 15.87C16.765 15.9 16.76 15.93 16.755 15.96ZM16.97 15.97C16.97 15.98 16.96 15.98 16.955 15.98C16.92 15.965 16.885 15.945 16.85 15.93C16.84 15.925 16.84 15.92 16.85 15.915C16.89 15.895 16.935 15.88 16.98 15.875C16.99 15.875 16.995 15.88 16.995 15.885C16.98 15.91 16.975 15.94 16.97 15.97ZM17.14 15.575C17.18 15.555 17.225 15.54 17.27 15.535C17.28 15.535 17.285 15.54 17.285 15.545C17.28 15.575 17.27 15.605 17.265 15.635C17.265 15.64 17.255 15.645 17.25 15.64C17.215 15.625 17.18 15.605 17.145 15.59C17.135 15.585 17.135 15.575 17.14 15.575ZM17.23 15.72C17.24 15.72 17.245 15.725 17.245 15.73C17.24 15.76 17.23 15.79 17.225 15.82C17.225 15.825 17.215 15.83 17.21 15.825C17.175 15.81 17.14 15.79 17.105 15.775C17.095 15.77 17.095 15.765 17.105 15.76C17.14 15.745 17.185 15.73 17.23 15.72ZM17.06 15.495C17.07 15.495 17.075 15.5 17.075 15.505C17.07 15.535 17.06 15.565 17.055 15.595C17.055 15.605 17.045 15.605 17.04 15.605C17.005 15.59 16.97 15.57 16.935 15.555C16.925 15.55 16.925 15.545 16.935 15.54C16.97 15.52 17.015 15.505 17.06 15.495ZM17.02 15.68C17.03 15.68 17.035 15.685 17.035 15.69C17.03 15.72 17.02 15.75 17.015 15.78C17.015 15.79 17.005 15.79 17 15.79C16.965 15.775 16.93 15.755 16.895 15.74C16.885 15.735 16.885 15.73 16.895 15.725C16.93 15.705 16.975 15.69 17.02 15.68ZM16.845 15.495C16.855 15.495 16.86 15.5 16.86 15.505C16.855 15.535 16.845 15.565 16.84 15.595C16.84 15.605 16.83 15.605 16.825 15.605C16.79 15.59 16.755 15.57 16.72 15.555C16.71 15.55 16.71 15.545 16.72 15.54C16.755 15.515 16.8 15.5 16.845 15.495ZM16.8 15.675C16.81 15.675 16.815 15.68 16.815 15.685C16.81 15.715 16.8 15.745 16.795 15.775C16.795 15.78 16.785 15.785 16.78 15.78C16.745 15.765 16.71 15.745 16.675 15.73C16.665 15.725 16.665 15.72 16.675 15.715C16.715 15.7 16.755 15.685 16.8 15.675ZM16.625 15.51C16.635 15.51 16.64 15.515 16.64 15.52C16.635 15.55 16.625 15.58 16.62 15.61C16.62 15.615 16.61 15.62 16.605 15.615C16.57 15.6 16.535 15.58 16.5 15.565C16.49 15.56 16.49 15.555 16.5 15.55C16.535 15.535 16.58 15.52 16.625 15.51ZM16.585 15.695C16.595 15.695 16.6 15.7 16.6 15.705C16.595 15.735 16.585 15.765 16.58 15.795C16.58 15.805 16.57 15.805 16.565 15.8C16.53 15.785 16.495 15.765 16.46 15.75C16.45 15.745 16.45 15.74 16.46 15.735C16.495 15.72 16.54 15.705 16.585 15.695ZM16.405 15.55C16.415 15.55 16.42 15.555 16.42 15.56C16.415 15.59 16.405 15.62 16.4 15.65C16.4 15.66 16.39 15.66 16.385 15.655C16.35 15.64 16.315 15.62 16.28 15.605C16.27 15.6 16.27 15.595 16.28 15.59C16.315 15.57 16.36 15.555 16.405 15.55ZM16.36 15.745C16.37 15.745 16.375 15.75 16.375 15.755C16.37 15.785 16.36 15.815 16.355 15.845C16.355 15.85 16.345 15.855 16.34 15.85C16.305 15.835 16.27 15.815 16.235 15.8C16.225 15.795 16.225 15.79 16.235 15.785C16.27 15.765 16.315 15.75 16.36 15.745ZM16.185 15.6C16.195 15.6 16.2 15.605 16.2 15.61C16.195 15.64 16.185 15.67 16.18 15.7C16.18 15.71 16.17 15.71 16.165 15.705C16.13 15.69 16.095 15.67 16.06 15.655C16.05 15.65 16.05 15.645 16.06 15.64C16.095 15.62 16.14 15.605 16.185 15.6ZM16.14 15.805C16.15 15.805 16.155 15.81 16.155 15.815C16.15 15.845 16.14 15.875 16.135 15.905C16.135 15.91 16.125 15.915 16.12 15.91C16.085 15.895 16.05 15.875 16.015 15.86C16.005 15.855 16.005 15.85 16.015 15.845C16.05 15.825 16.095 15.81 16.14 15.805ZM15.965 15.66C15.975 15.66 15.98 15.665 15.98 15.67C15.975 15.7 15.965 15.73 15.96 15.76C15.96 15.77 15.95 15.77 15.945 15.765C15.91 15.75 15.875 15.73 15.84 15.715C15.83 15.71 15.83 15.705 15.84 15.7C15.88 15.68 15.92 15.665 15.965 15.66ZM15.92 15.855C15.93 15.855 15.935 15.86 15.935 15.865C15.93 15.895 15.92 15.925 15.915 15.955C15.915 15.96 15.905 15.965 15.9 15.96C15.865 15.945 15.83 15.925 15.795 15.91C15.785 15.905 15.785 15.9 15.795 15.895C15.835 15.88 15.875 15.865 15.92 15.855ZM15.94 14.875C15.95 14.875 15.955 14.88 15.955 14.885C15.95 14.915 15.94 14.945 15.935 14.975C15.935 14.985 15.925 14.985 15.92 14.985C15.885 14.97 15.85 14.95 15.815 14.935C15.805 14.93 15.805 14.925 15.815 14.92C15.855 14.895 15.895 14.88 15.94 14.875ZM15.28 15.65C15.27 15.645 15.27 15.64 15.28 15.635C15.32 15.615 15.365 15.6 15.41 15.595C15.42 15.595 15.425 15.6 15.425 15.605C15.42 15.635 15.41 15.665 15.405 15.695C15.405 15.705 15.395 15.705 15.39 15.7C15.355 15.68 15.32 15.665 15.28 15.65ZM15.51 15.865C15.51 15.87 15.5 15.875 15.495 15.87C15.46 15.855 15.425 15.835 15.39 15.82C15.38 15.815 15.38 15.81 15.39 15.805C15.43 15.785 15.475 15.77 15.52 15.765C15.53 15.765 15.535 15.77 15.535 15.775C15.525 15.805 15.515 15.835 15.51 15.865ZM15.575 15.265C15.565 15.26 15.565 15.255 15.575 15.25C15.615 15.23 15.66 15.215 15.705 15.21C15.715 15.21 15.72 15.215 15.72 15.22C15.715 15.25 15.705 15.28 15.7 15.31C15.7 15.315 15.69 15.32 15.685 15.315C15.645 15.3 15.61 15.285 15.575 15.265ZM15.64 15.555C15.635 15.585 15.625 15.615 15.62 15.645C15.62 15.65 15.61 15.655 15.605 15.65C15.57 15.635 15.535 15.615 15.5 15.6C15.49 15.595 15.49 15.59 15.5 15.585C15.54 15.565 15.585 15.55 15.63 15.545C15.635 15.54 15.64 15.545 15.64 15.555ZM15.605 15.37C15.615 15.37 15.62 15.375 15.62 15.38C15.615 15.41 15.605 15.44 15.6 15.47C15.6 15.475 15.59 15.48 15.585 15.475C15.55 15.46 15.515 15.44 15.48 15.425C15.47 15.42 15.47 15.415 15.48 15.41C15.52 15.39 15.565 15.375 15.605 15.37ZM15.7 15.96C15.7 15.97 15.69 15.97 15.685 15.97C15.65 15.955 15.615 15.935 15.58 15.92C15.57 15.915 15.57 15.91 15.58 15.905C15.62 15.885 15.665 15.87 15.71 15.865C15.72 15.865 15.725 15.87 15.725 15.875C15.715 15.9 15.71 15.93 15.7 15.96ZM15.765 15.685C15.76 15.715 15.75 15.745 15.745 15.775C15.745 15.785 15.735 15.785 15.73 15.785C15.695 15.77 15.66 15.75 15.625 15.735C15.615 15.73 15.615 15.725 15.625 15.72C15.665 15.7 15.71 15.685 15.755 15.68C15.76 15.675 15.765 15.675 15.765 15.685ZM15.745 14.965C15.755 14.965 15.76 14.97 15.76 14.975C15.755 15.005 15.745 15.035 15.74 15.065C15.74 15.075 15.73 15.075 15.725 15.07C15.69 15.055 15.655 15.035 15.62 15.02C15.61 15.015 15.61 15.01 15.62 15.005C15.66 14.985 15.7 14.975 15.745 14.965ZM15.57 15.08C15.58 15.08 15.585 15.085 15.585 15.09C15.58 15.12 15.57 15.15 15.565 15.18C15.565 15.185 15.555 15.19 15.55 15.185C15.515 15.17 15.48 15.15 15.445 15.135C15.435 15.13 15.435 15.125 15.445 15.12C15.485 15.105 15.525 15.09 15.57 15.08ZM15.44 15.235C15.45 15.235 15.455 15.24 15.455 15.245C15.45 15.275 15.44 15.305 15.435 15.335C15.435 15.345 15.425 15.345 15.42 15.345C15.385 15.33 15.35 15.31 15.315 15.295C15.305 15.29 15.305 15.285 15.315 15.28C15.35 15.26 15.395 15.245 15.44 15.235ZM15.39 15.415C15.4 15.415 15.405 15.42 15.405 15.425C15.4 15.455 15.39 15.485 15.385 15.515C15.385 15.525 15.375 15.525 15.37 15.525C15.335 15.51 15.3 15.49 15.265 15.475C15.255 15.47 15.255 15.465 15.265 15.46C15.3 15.435 15.345 15.42 15.39 15.415ZM19.5 5H4.5C3.12 5 2 6.12 2 7.5V11V12V16.5C2 17.88 3.12 19 4.5 19H8H9H19.5C20.88 19 22 17.88 22 16.5V12V11V7.5C22 6.12 20.88 5 19.5 5ZM10.92 11H9V9.5C9 8.755 10.23 8 10.92 8C11.505 8 12 8.685 12 9.5C12 10.315 11.505 11 10.92 11ZM5 9.5C5 8.685 5.495 8 6.085 8C6.77 8 8.005 8.755 8.005 9.5V11H6.085C5.495 11 5 10.315 5 9.5ZM3 7.5C3 6.675 3.675 6 4.5 6H8V7.755C7.41 7.29 6.67 7 6.085 7C4.935 7 4 8.12 4 9.5C4 10.065 4.165 10.58 4.425 11H3V7.5ZM4.5 18C3.675 18 3 17.325 3 16.5V12H6.085H7.02C6.28 12.76 5.5 14.03 5.5 16C5.5 16.275 5.725 16.5 6 16.5C6.275 16.5 6.5 16.275 6.5 16C6.5 14.1 7.355 13 8 12.44V18H4.5ZM21 16.5C21 17.325 20.325 18 19.5 18H9V12.44C9.645 13 10.5 14.1 10.5 16C10.5 16.275 10.725 16.5 11 16.5C11.275 16.5 11.5 16.275 11.5 16C11.5 14.03 10.72 12.76 9.985 12H10.92H21V16.5ZM12.575 11C12.84 10.58 13 10.065 13 9.5C13 8.12 12.065 7 10.92 7C10.335 7 9.59 7.29 9 7.755V6H19.5C20.325 6 21 6.675 21 7.5V11H12.575Z" fill="#002D18"/>
</svg>
