<svg width="24" height="24" viewBox="0 0 24 24" fill="none" xmlns="http://www.w3.org/2000/svg">
<path d="M15.5693 3.70573C15.8429 3.74221 16.0352 3.99358 15.9987 4.26719L15.8447 5.42219C15.8083 5.6958 15.5569 5.88804 15.2833 5.85157C15.0097 5.8151 14.8174 5.56373 14.8539 5.29011L15.0079 4.13511C15.0443 3.8615 15.2957 3.66926 15.5693 3.70573Z" fill="#002D18" style="fill:#002D18;fill:color(display-p3 0.0000 0.1765 0.0941);fill-opacity:1;"/>
<path d="M12.1065 4.28251C12.3017 4.08732 12.6182 4.08732 12.8134 4.28251L13.6829 5.15203C13.8781 5.34721 13.8781 5.66367 13.6829 5.85885C13.4877 6.05403 13.1712 6.05403 12.9761 5.85885L12.1065 4.98933C11.9114 4.79415 11.9114 4.47769 12.1065 4.28251Z" fill="#002D18" style="fill:#002D18;fill:color(display-p3 0.0000 0.1765 0.0941);fill-opacity:1;"/>
<path fill-rule="evenodd" clip-rule="evenodd" d="M4.245 5.20135C3.54045 5.20135 2.96964 5.77216 2.96964 6.47671V16.9872H2.49995C2.22392 16.9872 2.00015 17.2109 2.00015 17.487V18.426C2.00015 19.1298 2.57081 19.7012 3.27551 19.7012H20.7245C21.4285 19.7012 21.9998 19.13 21.9998 18.426V17.487C21.9998 17.2109 21.7761 16.9872 21.5 16.9872H21.0302V14.9868C21.0302 14.7107 20.8065 14.487 20.5304 14.487C20.2544 14.487 20.0306 14.7107 20.0306 14.9868V16.8339H3.96924V6.47671C3.96924 6.32422 4.09252 6.20095 4.245 6.20095H10.5C10.776 6.20095 10.9998 5.97718 10.9998 5.70115C10.9998 5.42512 10.776 5.20135 10.5 5.20135H4.245ZM2.99975 18.426V17.9868H21.0002V18.426C21.0002 18.5778 20.8765 18.7016 20.7245 18.7016H3.27551C3.12317 18.7016 2.99975 18.578 2.99975 18.426Z" fill="#002D18" style="fill:#002D18;fill:color(display-p3 0.0000 0.1765 0.0941);fill-opacity:1;"/>
<path d="M17.5145 5.27263C17.2384 5.27263 17.0147 5.4964 17.0147 5.77243C17.0147 6.04846 17.2384 6.27223 17.5145 6.27223C19.4395 6.27223 21.0002 7.83298 21.0002 9.75799C21.0002 11.6829 19.4395 13.2436 17.5145 13.2436C15.5895 13.2436 14.0288 11.6829 14.0288 9.75799C14.0288 9.48196 13.8051 9.25819 13.529 9.25819C13.253 9.25819 13.0292 9.48196 13.0292 9.75799C13.0292 12.2349 15.0374 14.2432 17.5145 14.2432C19.9915 14.2432 21.9998 12.235 21.9998 9.75799C21.9998 7.28092 19.9915 5.27263 17.5145 5.27263Z" fill="#002D18" style="fill:#002D18;fill:color(display-p3 0.0000 0.1765 0.0941);fill-opacity:1;"/>
<path d="M12.9201 7.71475C13.196 7.70857 13.4147 7.47985 13.4085 7.20388C13.4024 6.92792 13.1736 6.70922 12.8977 6.7154L11.5792 6.74492C11.3033 6.7511 11.0846 6.97982 11.0907 7.25578C11.0969 7.53174 11.3256 7.75045 11.6016 7.74427L12.9201 7.71475Z" fill="#002D18" style="fill:#002D18;fill:color(display-p3 0.0000 0.1765 0.0941);fill-opacity:1;"/>
<path d="M18.9366 8.86255L17.8337 9.49999L18.8662 10.664C18.9282 10.7335 18.9216 10.839 18.8521 10.901L18.3492 11.347C18.2802 11.4085 18.1741 11.4025 18.1122 11.3325L17.0796 10.1685L16.3162 11.1885C16.2516 11.2746 16.1172 11.253 16.0836 11.15L14.7066 6.91903C14.6706 6.80851 14.7832 6.70855 14.8891 6.75703L18.9262 8.62747C19.0242 8.67247 19.0302 8.80903 18.9366 8.86255Z" fill="#002D18" style="fill:#002D18;fill:color(display-p3 0.0000 0.1765 0.0941);fill-opacity:1;"/>
<path fill-rule="evenodd" clip-rule="evenodd" d="M10.9863 12.2503C11.0135 12.2572 11.0408 12.2641 11.0711 12.2832C11.1241 12.3162 11.141 12.4002 11.0265 12.4551C10.9176 12.5071 10.7846 12.5151 10.6111 12.5172C10.4371 12.5196 9.90755 12.5112 9.54503 12.4242C9.25055 12.6031 8.80259 12.6696 8.27411 12.6436C8.27411 12.6436 8.26163 12.6931 8.33255 12.7076C8.5484 12.752 8.57241 12.7998 8.58849 12.8319L8.58863 12.8322C8.62055 12.8966 8.59307 12.9776 8.55155 12.9801C8.54231 12.9806 8.53048 12.9716 8.51397 12.9591C8.51268 12.9581 8.51137 12.9571 8.51003 12.9561C8.45711 12.9156 8.41463 12.9066 8.41559 13.0011C8.41607 13.0786 8.37455 13.0801 8.34059 13.0441C8.25563 12.9566 8.23307 12.9942 8.23259 13.0701C8.23259 13.1502 8.19311 13.1586 8.14259 13.1031C8.10107 13.0572 8.06855 13.0371 8.04959 13.1446C8.03603 13.2226 7.97411 13.2196 7.94507 13.1382C7.94118 13.1275 7.93742 13.1163 7.93357 13.1049C7.91408 13.047 7.89218 12.982 7.83959 12.9386C7.77011 12.8806 7.73003 12.8421 7.73003 12.7446C7.73003 12.6156 7.82255 12.5136 7.95359 12.4602C7.87655 12.4036 7.79063 12.4786 7.71611 12.5476C7.69574 12.5667 7.67873 12.5855 7.66306 12.6028C7.62641 12.6434 7.59707 12.6759 7.54907 12.6836C7.36211 12.7141 6.93263 12.6801 6.86603 12.6586C6.81563 12.5431 6.70355 12.5361 6.67403 12.5361C6.74411 12.3896 6.70955 12.3066 6.68855 12.2696C6.66863 12.2352 6.63755 12.2061 6.60011 12.1906C6.58055 12.1821 6.56207 12.1761 6.53963 12.1876C6.69155 12.2916 6.67463 12.4046 6.53963 12.6106C6.53963 12.6106 6.60455 12.6006 6.66611 12.6132C6.75107 12.6301 6.83711 12.6746 6.79355 12.8566C6.77903 12.9156 6.76403 12.9576 6.71663 12.9266C6.63359 12.8721 6.61655 12.8826 6.60203 12.9091C6.59663 12.9195 6.5945 12.9366 6.59225 12.9545C6.5862 13.0028 6.57936 13.0574 6.50603 13.0056C6.43955 12.9586 6.42059 12.9552 6.40055 13.0242C6.35903 13.1661 6.24755 13.0156 6.20003 12.9252C6.15059 12.8316 6.16655 12.6981 6.20507 12.5952C6.22403 12.5436 6.24059 12.5031 6.24059 12.5031C6.10355 12.3936 5.96807 12.0961 6.00659 11.7312C6.03911 11.4261 6.15203 11.2542 6.25811 11.0986C6.28071 11.066 6.30248 11.0718 6.32345 11.0775C6.34513 11.0834 6.36597 11.089 6.38603 11.0516C6.38834 11.0471 6.39125 11.0412 6.39465 11.0343C6.42579 10.9712 6.49877 10.8232 6.54659 10.8561C6.58763 10.8846 6.60611 10.8762 6.61907 10.8642C6.64157 10.8404 6.66204 10.8113 6.68107 10.7843C6.71955 10.7296 6.75211 10.6834 6.78359 10.7061C6.82403 10.7346 6.85163 10.7536 6.89255 10.7106L6.89811 10.7047C6.96852 10.63 7.02353 10.5717 7.05803 10.6311C7.08939 10.6852 7.12722 10.6458 7.15398 10.6179C7.15794 10.6138 7.16165 10.6099 7.16507 10.6066C7.21607 10.5582 7.28303 10.5021 7.31207 10.5691C7.34013 10.6336 7.38216 10.6002 7.46204 10.5367C7.46754 10.5323 7.47323 10.5278 7.47911 10.5231C7.5603 10.4591 7.57464 10.4953 7.58707 10.5266C7.59018 10.5345 7.59318 10.542 7.59707 10.5476C7.61663 10.5751 7.66055 10.5702 7.72463 10.5116C7.83311 10.4126 7.85255 10.4451 7.87511 10.5012C7.89707 10.5571 7.97111 10.5042 8.01563 10.4592C8.08996 10.3838 8.10529 10.4001 8.13046 10.4269C8.13118 10.4276 8.1319 10.4284 8.13263 10.4292C8.16803 10.4661 8.18507 10.4791 8.30363 10.3666C8.32163 10.3496 8.34707 10.3491 8.36111 10.3636C8.36382 10.3666 8.36637 10.3697 8.3689 10.3727C8.38454 10.3916 8.39967 10.41 8.44955 10.3876C8.46781 10.3795 8.48595 10.3596 8.50445 10.3393C8.53712 10.3034 8.57093 10.2664 8.60855 10.2906C8.61824 10.297 8.62585 10.3046 8.63277 10.3116C8.65017 10.3291 8.66314 10.3422 8.69363 10.3196C8.70996 10.3073 8.72451 10.2916 8.73823 10.2768C8.77146 10.2409 8.79976 10.2103 8.83655 10.2471C8.87555 10.2861 8.90807 10.3006 9.03311 10.1262C9.05555 10.0946 9.09455 10.1076 9.09455 10.1456C9.09455 10.2016 9.07055 10.4326 8.69855 10.6291C8.30852 10.8357 8.02902 10.9076 7.76741 10.975C7.56355 11.0275 7.37054 11.0772 7.14455 11.1856C6.93659 11.2851 6.82607 11.3746 6.85763 11.4601C6.88859 11.5422 7.01411 11.5496 7.15163 11.5136C7.68959 11.3721 8.02703 11.3442 8.16911 11.3442C8.62067 11.3442 8.87923 11.454 9.02727 11.517C9.04332 11.5238 9.05807 11.5301 9.07163 11.5356C9.15311 11.4896 9.26207 11.4582 9.38603 11.4936C9.57734 11.3173 9.71014 11.3503 9.80122 11.3729C9.81989 11.3776 9.8368 11.3818 9.85211 11.3836C9.89974 11.3893 9.93871 11.3799 9.97308 11.3716C10.0411 11.3552 10.0912 11.3432 10.1546 11.4612C10.1546 11.4612 10.7685 11.3262 10.8675 11.3056C10.985 11.2816 11.0385 11.2796 11.0646 11.3366C11.093 11.3996 11.0445 11.4556 11.0126 11.4822C11.0011 11.4916 10.9926 11.5032 10.988 11.5146C10.9812 11.5319 10.9767 11.546 10.9731 11.5576C10.9645 11.5848 10.9604 11.5979 10.94 11.6056C10.9249 11.6114 10.8993 11.5957 10.8749 11.5808C10.8534 11.5677 10.8328 11.5551 10.8216 11.5586C10.7916 11.5687 10.7817 11.6016 10.7733 11.6297C10.7671 11.6504 10.7616 11.6685 10.7496 11.6731C10.7345 11.6789 10.709 11.6632 10.6847 11.6484C10.663 11.6351 10.6423 11.6224 10.631 11.6262C10.6008 11.6362 10.591 11.6688 10.5826 11.6969C10.5763 11.7176 10.5709 11.7358 10.5585 11.7406C10.5436 11.7461 10.5183 11.7307 10.4942 11.7159C10.4724 11.7025 10.4515 11.6898 10.4401 11.6936C10.4098 11.7037 10.4 11.7363 10.3915 11.7643C10.3853 11.7849 10.3799 11.8029 10.3676 11.8076C10.3525 11.8134 10.3271 11.7979 10.303 11.7831C10.2814 11.7699 10.2609 11.7574 10.2495 11.7612C10.2191 11.7709 10.2098 11.8022 10.2015 11.8299C10.1955 11.8504 10.19 11.8688 10.1771 11.8752C10.1602 11.8834 10.1285 11.8629 10.0942 11.8407C10.089 11.8374 10.0838 11.834 10.0785 11.8306C10.044 11.8088 10.0268 11.8141 10.0092 11.8195C10.0062 11.8204 10.0032 11.8213 10.0001 11.8221C9.99369 11.8238 9.98663 11.826 9.9788 11.8284C9.9339 11.8425 9.86411 11.8644 9.75803 11.8291C9.61055 11.7796 9.54755 11.7866 9.43463 11.8291C9.34312 11.8627 9.28807 11.8476 9.24858 11.8369C9.24276 11.8353 9.23728 11.8338 9.23207 11.8326C9.23207 11.8326 9.22655 11.9536 9.36659 11.9391C9.38066 11.9376 9.39711 11.9348 9.4151 11.9317C9.47319 11.9219 9.54737 11.9093 9.60959 11.9276C9.69479 11.9529 9.72262 11.9854 9.76227 12.0317C9.7964 12.0715 9.83928 12.1216 9.93503 12.1861C9.97076 12.2051 10.0057 12.1917 10.0376 12.1795C10.063 12.1697 10.0865 12.1607 10.1071 12.1692C10.1185 12.1736 10.128 12.1943 10.1379 12.2157C10.1493 12.2405 10.1613 12.2664 10.1771 12.2696C10.1898 12.2724 10.2059 12.2604 10.2239 12.2469C10.247 12.2295 10.2734 12.2098 10.2996 12.2166C10.313 12.22 10.3226 12.2425 10.3321 12.2652C10.3422 12.2889 10.3523 12.3128 10.367 12.3156C10.3799 12.3185 10.3967 12.3067 10.4153 12.2937C10.4385 12.2775 10.4646 12.2592 10.4891 12.2656C10.5052 12.27 10.5145 12.291 10.5241 12.3126C10.5344 12.3357 10.5449 12.3595 10.5645 12.3642C10.5782 12.3672 10.5957 12.3534 10.6144 12.3388C10.6355 12.3222 10.658 12.3046 10.6776 12.3091C10.6919 12.3127 10.7005 12.323 10.7108 12.3354C10.7221 12.349 10.7355 12.365 10.7606 12.3771C10.805 12.3981 10.8461 12.3966 10.8631 12.3716C10.8846 12.3396 10.8585 12.3066 10.799 12.2791C10.7091 12.2378 10.5631 12.1961 10.4143 12.1535C10.4028 12.1502 10.3912 12.1469 10.3796 12.1436C10.2191 12.0972 10.0801 12.0386 10.07 11.9576C10.0661 11.9232 10.0831 11.9276 10.0901 11.9301C10.0914 11.9306 10.1 11.9372 10.1108 11.9455C10.1243 11.9559 10.1413 11.9689 10.1521 11.9761C10.2191 12.0211 10.2701 12.0296 10.2931 12.0331C10.31 12.0358 10.3272 12.0241 10.3448 12.0121C10.3656 11.9979 10.3871 11.9832 10.4096 11.9916C10.4186 11.9949 10.4247 12.0144 10.4312 12.0349C10.4385 12.0579 10.4461 12.0821 10.4586 12.0861C10.4688 12.0894 10.482 12.0797 10.4969 12.0688C10.5165 12.0545 10.5388 12.0382 10.5606 12.0462C10.5695 12.0494 10.5771 12.0681 10.5852 12.0878C10.5942 12.1099 10.6037 12.1331 10.616 12.1371C10.6263 12.1407 10.6399 12.1312 10.6549 12.1206C10.6742 12.1071 10.6961 12.0918 10.7171 12.0996C10.726 12.1029 10.7328 12.1219 10.74 12.1418C10.7481 12.1641 10.7566 12.1877 10.769 12.1916C10.7792 12.1951 10.7916 12.186 10.8056 12.1758C10.8239 12.1624 10.8449 12.1471 10.8671 12.1556C10.8741 12.1582 10.8808 12.1685 10.889 12.1813C10.9031 12.203 10.9218 12.2319 10.9545 12.2416C10.9652 12.245 10.9757 12.2477 10.9863 12.2503ZM8.79659 11.7256C8.80355 11.6906 8.81159 11.6566 8.81963 11.6236C8.82155 11.6156 8.81507 11.6101 8.80511 11.6121C8.75459 11.6216 8.70503 11.6376 8.65859 11.6601C8.64959 11.6641 8.64959 11.6716 8.65907 11.6761C8.70155 11.6961 8.74103 11.7156 8.77859 11.7342C8.78663 11.7381 8.79455 11.7342 8.79659 11.7256ZM8.56955 11.6466C8.57663 11.6116 8.58455 11.5776 8.59259 11.5446C8.59511 11.5366 8.58803 11.5311 8.57807 11.5332C8.52755 11.5422 8.47811 11.5586 8.43203 11.5806C8.42255 11.5851 8.42303 11.5926 8.43203 11.5971C8.4671 11.6136 8.50006 11.6297 8.53178 11.6452C8.53858 11.6485 8.54533 11.6518 8.55203 11.6551C8.56007 11.6592 8.56811 11.6551 8.56955 11.6466ZM8.50403 11.8706C8.51207 11.8746 8.52011 11.8711 8.52155 11.8626C8.52911 11.8276 8.53655 11.7936 8.54507 11.7606C8.54711 11.7526 8.54063 11.7471 8.53055 11.7486C8.47955 11.7582 8.43059 11.7741 8.38403 11.7966C8.37503 11.8011 8.37503 11.8086 8.38403 11.8126C8.40419 11.8224 8.42375 11.8318 8.44274 11.841C8.46388 11.8512 8.4843 11.8611 8.50403 11.8706ZM8.33159 11.6076C8.33855 11.5726 8.34659 11.5386 8.35463 11.5056C8.35703 11.4976 8.35007 11.4921 8.34011 11.4942C8.28959 11.5032 8.24003 11.5196 8.19359 11.5422C8.18459 11.5461 8.18459 11.5536 8.19407 11.5581C8.23582 11.5778 8.27467 11.5969 8.31165 11.6151L8.31359 11.6161C8.32211 11.6202 8.32955 11.6161 8.33159 11.6076ZM8.28359 11.8171C8.29103 11.7822 8.29859 11.7481 8.30711 11.7151C8.30903 11.7072 8.30255 11.7016 8.29259 11.7036C8.24159 11.7132 8.19203 11.7291 8.14607 11.7511C8.13707 11.7556 8.13707 11.7631 8.14607 11.7676C8.18855 11.7876 8.22863 11.8071 8.26607 11.8256C8.27411 11.8296 8.28155 11.8256 8.28359 11.8171ZM8.23607 12.0316C8.24363 11.9966 8.25107 11.9626 8.25959 11.9296C8.26163 11.9216 8.25503 11.9161 8.24507 11.9181C8.19407 11.9271 8.14511 11.9436 8.09855 11.9656C8.08955 11.9701 8.08955 11.9776 8.09903 11.9821C8.14103 12.0021 8.18111 12.0216 8.21855 12.0402C8.22659 12.0436 8.23463 12.0402 8.23607 12.0316ZM8.06711 11.6106C8.07503 11.6146 8.08307 11.6106 8.08463 11.6022C8.09159 11.5676 8.09963 11.5336 8.10755 11.5006C8.10959 11.4921 8.10311 11.4871 8.09363 11.4886C8.04263 11.4981 7.99307 11.5146 7.94663 11.5366C7.93763 11.5411 7.93811 11.5486 7.94711 11.5526C7.9618 11.5597 7.97612 11.5666 7.99016 11.5734C8.01672 11.5862 8.04222 11.5985 8.06711 11.6106ZM8.03711 11.8106C8.04407 11.7756 8.05211 11.7416 8.06003 11.7086C8.06255 11.7006 8.05607 11.6952 8.04563 11.6966C7.99511 11.7061 7.94555 11.7222 7.89959 11.7446C7.89059 11.7492 7.89059 11.7566 7.89959 11.7612C7.9266 11.7738 7.95239 11.7864 7.97726 11.7984C7.9915 11.8053 8.00543 11.8121 8.01911 11.8186C8.02763 11.8226 8.03507 11.8186 8.03711 11.8106ZM7.99103 12.0222C7.99811 11.9871 8.00603 11.9536 8.01407 11.9202C8.01611 11.9121 8.00963 11.9066 7.99955 11.9082C7.94855 11.9176 7.89959 11.9341 7.85303 11.9566C7.84403 11.9606 7.84463 11.9682 7.85363 11.9726C7.88146 11.9857 7.90799 11.9986 7.93352 12.011C7.94696 12.0175 7.96011 12.0239 7.97303 12.0301C7.98107 12.0342 7.98911 12.0301 7.99103 12.0222ZM7.76751 11.6057C7.78543 11.6144 7.80289 11.623 7.82003 11.6311C7.82759 11.6352 7.83563 11.6311 7.83755 11.6226L7.83779 11.6215C7.84526 11.5874 7.85264 11.5538 7.86107 11.5212C7.86263 11.5126 7.85603 11.5076 7.84655 11.5092C7.79555 11.5186 7.74611 11.5346 7.70003 11.5572C7.69103 11.5616 7.69103 11.5692 7.70003 11.5731C7.72337 11.5841 7.74578 11.5951 7.76751 11.6057ZM7.78955 11.8346C7.79663 11.7996 7.80455 11.7656 7.81259 11.7326C7.81511 11.7246 7.80863 11.7192 7.79807 11.7211C7.74755 11.7301 7.69811 11.7466 7.65203 11.7691C7.64255 11.7732 7.64303 11.7806 7.65203 11.7852C7.67706 11.7969 7.70102 11.8085 7.72421 11.8197C7.74049 11.8275 7.75639 11.8352 7.77203 11.8426C7.77959 11.8466 7.78763 11.8431 7.78955 11.8346ZM7.74311 12.0476C7.75055 12.0126 7.75811 11.9791 7.76663 11.9456C7.76855 11.9376 7.76207 11.9322 7.75211 11.9341C7.70111 11.9436 7.65203 11.9596 7.60511 11.9821C7.59611 11.9866 7.59659 11.9936 7.60559 11.9982C7.64464 12.0163 7.68081 12.0341 7.71528 12.0511L7.72559 12.0561C7.73363 12.0601 7.74155 12.0561 7.74311 12.0476ZM7.44863 11.6151C7.49063 11.6356 7.53059 11.6551 7.56803 11.6731C7.57607 11.6772 7.58459 11.6736 7.58603 11.6646C7.59311 11.6301 7.60103 11.5962 7.60907 11.5632C7.61111 11.5551 7.60463 11.5496 7.59455 11.5516C7.54355 11.5606 7.49459 11.5766 7.44803 11.5992C7.43903 11.6041 7.43963 11.6112 7.44863 11.6151ZM7.51763 11.8966C7.52555 11.9006 7.53359 11.8966 7.53503 11.8881L7.53645 11.8816C7.54353 11.8492 7.55056 11.8171 7.55855 11.7861C7.56059 11.7781 7.55411 11.7732 7.54403 11.7746C7.49303 11.7836 7.44407 11.8002 7.39763 11.8226C7.38863 11.8272 7.38911 11.8341 7.39811 11.8386C7.44011 11.8586 7.48007 11.8782 7.51763 11.8966ZM7.46963 12.1101C7.47755 12.1136 7.48559 12.1101 7.48763 12.1016C7.49507 12.0666 7.50263 12.0326 7.51103 11.9996C7.51259 11.9916 7.50611 11.9862 7.49603 11.9881C7.44563 11.9971 7.39607 12.0132 7.34963 12.0356C7.34063 12.0402 7.34111 12.0476 7.35011 12.0522C7.38802 12.0699 7.42354 12.0874 7.45743 12.1041L7.46963 12.1101ZM7.31963 11.7306C7.32755 11.7346 7.33559 11.7306 7.33763 11.7222C7.34459 11.6876 7.35263 11.6536 7.36055 11.6206C7.36259 11.6121 7.35659 11.6066 7.34603 11.6086C7.29503 11.6181 7.24607 11.6341 7.19963 11.6566C7.19063 11.6606 7.19111 11.6686 7.20011 11.6726C7.20866 11.6767 7.21709 11.6808 7.22541 11.6848C7.25841 11.7007 7.28963 11.7158 7.31963 11.7306ZM7.28459 11.9546C7.29203 11.9202 7.29959 11.8861 7.30811 11.8526C7.31003 11.8446 7.30355 11.8392 7.29359 11.8411C7.24259 11.8506 7.19303 11.8666 7.14707 11.8891C7.13807 11.8936 7.13807 11.9011 7.14707 11.9052C7.18955 11.9251 7.22963 11.9446 7.26707 11.9631C7.27511 11.9671 7.28303 11.9631 7.28459 11.9546ZM7.23659 12.1746C7.24403 12.1401 7.25159 12.1062 7.26011 12.0732C7.26203 12.0646 7.25555 12.0591 7.24559 12.0612C7.19459 12.0706 7.14563 12.0866 7.09907 12.1092C7.09007 12.1136 7.09007 12.1212 7.09955 12.1251C7.14155 12.1452 7.18163 12.1646 7.21907 12.1831C7.22711 12.1872 7.23503 12.1831 7.23659 12.1746ZM6.95159 11.7416C6.99407 11.7616 7.03403 11.7811 7.07159 11.7996C7.07963 11.8036 7.08755 11.7996 7.08911 11.7912C7.09655 11.7561 7.10411 11.7226 7.11263 11.6892C7.11455 11.6811 7.10807 11.6756 7.09811 11.6776C7.04711 11.6871 6.99755 11.7036 6.95159 11.7256C6.94259 11.7296 6.94259 11.7376 6.95159 11.7416ZM7.03811 12.0156C7.04555 11.9806 7.05311 11.9466 7.06163 11.9136C7.06355 11.9056 7.05707 11.9001 7.04663 11.9022C6.99611 11.9112 6.94703 11.9276 6.90059 11.9496C6.89159 11.9546 6.89159 11.9616 6.90107 11.9661C6.94307 11.9862 6.98303 12.0056 7.02059 12.0241C7.02863 12.0282 7.03607 12.0241 7.03811 12.0156ZM6.82703 11.8171C6.83555 11.8212 6.84311 11.8171 6.84503 11.8086L6.84532 11.8073C6.85278 11.7733 6.86014 11.7397 6.86855 11.7066C6.87011 11.6986 6.86363 11.6931 6.85403 11.6952C6.80303 11.7046 6.75359 11.7206 6.70763 11.7432C6.69803 11.7476 6.69863 11.7552 6.70763 11.7591C6.71532 11.7628 6.72291 11.7665 6.73041 11.7701C6.76434 11.7865 6.79637 11.802 6.82703 11.8171ZM6.77903 12.0306C6.78707 12.0346 6.79511 12.0306 6.79703 12.0222C6.80459 11.9871 6.81203 11.9536 6.82055 11.9202C6.82259 11.9121 6.81611 11.9071 6.80603 11.9086C6.75503 11.9181 6.70559 11.9346 6.65963 11.9566C6.65003 11.9611 6.65063 11.9682 6.65963 11.9726C6.70211 11.9926 6.74159 12.0121 6.77903 12.0306ZM6.56711 11.5946C6.55811 11.5986 6.55811 11.6061 6.56711 11.6101C6.58414 11.6183 6.60076 11.6264 6.61698 11.6343C6.64124 11.646 6.6646 11.6574 6.68711 11.6682C6.69503 11.6721 6.70307 11.6682 6.70463 11.6601C6.71159 11.6251 6.71963 11.5911 6.72803 11.5581C6.72959 11.5501 6.72311 11.5446 6.71303 11.5461C6.66263 11.5556 6.61307 11.5716 6.56711 11.5946ZM6.56159 11.9181C6.57011 11.9221 6.57803 11.9181 6.57959 11.9096C6.58655 11.8752 6.59459 11.8411 6.60311 11.8076C6.60503 11.7996 6.59807 11.7942 6.58811 11.7966C6.53759 11.8056 6.48803 11.8216 6.44159 11.8441C6.43259 11.8486 6.43307 11.8561 6.44207 11.8602C6.47998 11.8779 6.5155 11.8954 6.54939 11.9121L6.56159 11.9181ZM6.31907 11.6486C6.31007 11.6536 6.31055 11.6606 6.31955 11.6652C6.36155 11.6851 6.40163 11.7042 6.43907 11.7226C6.44711 11.7266 6.45503 11.7231 6.45707 11.7141C6.46403 11.6796 6.47207 11.6456 6.48059 11.6121C6.48263 11.6041 6.47555 11.5992 6.46559 11.6006C6.41507 11.6101 6.36563 11.6266 6.31907 11.6486ZM6.44003 11.3982C6.38963 11.4076 6.34007 11.4236 6.29363 11.4462C6.28463 11.4506 6.28463 11.4582 6.29363 11.4621C6.336 11.4819 6.37498 11.5011 6.41207 11.5193L6.41363 11.5201C6.42155 11.5242 6.42959 11.5201 6.43163 11.5116C6.43839 11.4781 6.44618 11.4451 6.45388 11.4124L6.45455 11.4096C6.45707 11.4016 6.45011 11.3961 6.44003 11.3982ZM6.49703 11.1972C6.44663 11.2066 6.39755 11.2226 6.35111 11.2452C6.34211 11.2491 6.34211 11.2566 6.35111 11.2611C6.39359 11.2812 6.43355 11.3006 6.47063 11.3191C6.47903 11.3232 6.48707 11.3191 6.48863 11.3106C6.49607 11.2761 6.50363 11.2422 6.51203 11.2086C6.51407 11.2006 6.50759 11.1951 6.49703 11.1972ZM6.64955 11.0226C6.59855 11.0316 6.54959 11.0476 6.50303 11.0701C6.49403 11.0746 6.49403 11.0821 6.50363 11.0862C6.51684 11.0926 6.52985 11.0989 6.54265 11.1051C6.57052 11.1187 6.59737 11.1318 6.62303 11.1441C6.63107 11.1481 6.63911 11.1441 6.64103 11.1356C6.64811 11.1012 6.65603 11.0671 6.66407 11.0341C6.66611 11.0262 6.65963 11.0206 6.64955 11.0226ZM6.68111 11.4616C6.68807 11.4271 6.69611 11.3931 6.70463 11.3601C6.70655 11.3516 6.69959 11.3466 6.69011 11.3481C6.63911 11.3576 6.58955 11.3736 6.54359 11.3961C6.53411 11.4006 6.53459 11.4081 6.54359 11.4121C6.58607 11.4321 6.62555 11.4516 6.66311 11.4702C6.67163 11.4741 6.67907 11.4702 6.68111 11.4616ZM6.81155 11.1786C6.81407 11.1702 6.80759 11.1651 6.79703 11.1666C6.74603 11.1762 6.69707 11.1921 6.65111 11.2146C6.64163 11.2191 6.64211 11.2266 6.65111 11.2306C6.66579 11.2377 6.6801 11.2446 6.69413 11.2514C6.7207 11.2642 6.74621 11.2765 6.77111 11.2886C6.77903 11.2926 6.78659 11.2886 6.78863 11.2801C6.79559 11.2456 6.80363 11.2116 6.81155 11.1786ZM6.84803 10.8886C6.79703 10.8981 6.74807 10.9146 6.70211 10.9366C6.69263 10.9411 6.69311 10.9486 6.70211 10.9526C6.74386 10.9723 6.78271 10.9914 6.81969 11.0096L6.82163 11.0106C6.83003 11.0146 6.83759 11.0112 6.83963 11.0022C6.84659 10.9676 6.85463 10.9336 6.86255 10.9006C6.86459 10.8926 6.85811 10.8871 6.84803 10.8886ZM7.07003 10.7846C7.01903 10.7941 6.97007 10.8102 6.92363 10.8326C6.91463 10.8366 6.91511 10.8441 6.92411 10.8486C6.95054 10.8609 6.97615 10.8734 7.00088 10.8854C7.01544 10.8925 7.0297 10.8995 7.04363 10.9062C7.05155 10.9101 7.05959 10.9062 7.06163 10.8976C7.06859 10.8631 7.07603 10.8291 7.08455 10.7961C7.08659 10.7881 7.08011 10.7826 7.07003 10.7846ZM9.84311 11.5281C9.83555 11.5046 9.79403 11.4526 9.72611 11.4526C9.67007 11.4522 9.64307 11.5056 9.64655 11.5306C9.64955 11.5536 9.66803 11.5662 9.69707 11.5596C9.74159 11.5506 9.84311 11.5281 9.84311 11.5281ZM10.0321 11.4156C10.0095 11.4156 9.98759 11.4342 9.97703 11.4606C9.96755 11.4856 9.96659 11.5002 9.99407 11.4951L10.0916 11.4732C10.0916 11.4596 10.0721 11.4156 10.0321 11.4156Z" fill="#002D18" style="fill:#002D18;fill:color(display-p3 0.0000 0.1765 0.0941);fill-opacity:1;"/>
</svg>
