<svg width="38" height="41" viewBox="0 0 38 41" fill="none" xmlns="http://www.w3.org/2000/svg">
<path d="M32.5 33.9C31 38 26.4 40.1 22.3 38.6C18.2 37.1 16.1 32.5 17.6 28.4C19.1 24.3 23.7 22.2 27.8 23.7" stroke="#002D18" stroke-width="2" stroke-linecap="round" stroke-linejoin="round"/>
<path d="M7.7 21.1C7.7 21.1 8.2 11.9 7.2 5.2C7.2 5.2 1 11.9 1 18L1.8 18.3L7.7 21V39" stroke="#002D18" stroke-width="2" stroke-linecap="round" stroke-linejoin="round"/>
<path d="M7.2 5.2L12.3 3.1L14.4 1C14.4 1 15.4 1.5 19 1.5" stroke="#002D18" stroke-width="2" stroke-linecap="round" stroke-linejoin="round"/>
<path d="M14.8 1.6C14.9 2 15.1 2.5 15.2 2.8C16.4 5.4 18.9 6.3 18.9 6.3L15.5 8.5C15.5 8.5 12.2 6.7 12.2 3.1" stroke="#002D18" stroke-width="2" stroke-linecap="round" stroke-linejoin="round"/>
<path d="M30.2 21.1C30.2 21.1 29.7 11.9 30.7 5.2C30.7 5.2 36.9 11.9 36.9 18L36.1 18.3L30.2 21" stroke="#002D18" stroke-width="2" stroke-linecap="round" stroke-linejoin="round"/>
<path d="M30.8 5.2L25.7 3.1L23.6 1C23.6 1 22.6 1.5 19 1.5" stroke="#002D18" stroke-width="2" stroke-linecap="round" stroke-linejoin="round"/>
<path d="M23.1 1.6C23 2 22.8 2.5 22.7 2.8C21.5 5.4 19 6.3 19 6.3L22.4 8.5C22.4 8.5 25.7 6.7 25.7 3.1" stroke="#002D18" stroke-width="2" stroke-linecap="round" stroke-linejoin="round"/>
<path d="M16.9 7.8V15.5H20" stroke="#002D18" stroke-width="2" stroke-linecap="round" stroke-linejoin="round"/>
<path d="M19.2 12.9C19.3657 12.9 19.5 12.7657 19.5 12.6C19.5 12.4343 19.3657 12.3 19.2 12.3C19.0343 12.3 18.9 12.4343 18.9 12.6C18.9 12.7657 19.0343 12.9 19.2 12.9Z" stroke="#002D18" stroke-width="2" stroke-linecap="round" stroke-linejoin="round"/>
<path d="M19.2 10.4C19.3657 10.4 19.5 10.2657 19.5 10.1C19.5 9.93431 19.3657 9.8 19.2 9.8C19.0343 9.8 18.9 9.93431 18.9 10.1C18.9 10.2657 19.0343 10.4 19.2 10.4Z" stroke="#002D18" stroke-width="2" stroke-linecap="round" stroke-linejoin="round"/>
<path d="M27.1 14.8C27.1 14.8 27.1 14.8 27 14.8C27 14.8 27.1 14.9 27.2 14.9C27.3 14.9 27.5 14.9 27.5 15C27.5 15 27.5 15 27.4 15C27.2 14.9 27.3 14.8 27.1 14.8C27.1 14.8 27 14.8 26.9 14.8C26.8 14.8 26.8 14.8 26.8 14.8C26.8 14.8 26.8 14.8 27 14.8C27 14.8 27.1 14.8 27.3 14.8H27.5C27.5 14.8 27.5 14.8 27.5 14.7C27.5 14.7 27.5 14.7 27.3 14.7L26.7 14.8C26.7 14.7 26.6 14.8 26.5 14.8C26.5 14.8 26.3 14.8 26.1 14.8C26.1 14.8 25.9 14.8 25.8 14.8C25.7 14.8 25.5 14.6 25.1 14.6C24.7 14.6 24.7 14.6 24.3 14.7C24.2 14.7 24.1 14.7 24.1 14.7C24.1 14.7 24.1 14.6 24.3 14.5C24.7 14.3 25 14.3 25.5 14.1C25.8 13.9 25.8 13.8 25.8 13.7C25.7 13.8 25.7 13.8 25.6 13.7C25.6 13.7 25.6 13.7 25.5 13.7C25.5 13.7 25.5 13.7 25.4 13.7H25.3C25.3 13.7 25.3 13.7 25.2 13.7C25.2 13.7 25.2 13.7 25.1 13.7C25.1 13.7 25.1 13.7 25 13.7H24.9C24.9 13.7 24.9 13.7 24.8 13.7C24.8 13.7 24.8 13.7 24.7 13.7C24.7 13.7 24.7 13.7 24.6 13.8C24.6 13.8 24.5 13.9 24.5 14C24.5 14 24.5 14 24.4 14C24.4 14.1 24.2 14.3 24.2 14.5C24.2 14.8 24.2 15 24.4 15.1C24.4 15.1 24.4 15.3 24.4 15.4C24.4 15.4 24.5 15.6 24.6 15.4C24.6 15.3 24.6 15.2 24.5 15.2H24.4C24.5 15 24.5 14.9 24.4 14.9C24.4 14.9 24.4 14.9 24.4 15.1C24.4 15.1 24.5 15.1 24.6 15.1C24.6 15.1 25 15.1 25.1 15.1C25.1 15.1 25.1 15.1 25.2 15C25.2 15 25.3 14.9 25.4 15C25.3 15 25.2 15.1 25.2 15.2C25.2 15.3 25.2 15.3 25.2 15.4C25.2 15.4 25.2 15.5 25.2 15.6C25.2 15.6 25.2 15.6 25.2 15.5C25.2 15.5 25.2 15.5 25 15.4C25.4 15.4 25.8 15.4 26 15.2C26.3 15.2 26.7 15.2 26.9 15.2C27 15.2 27.1 15.2 27.2 15.2V15.1L27.1 14.8ZM26 14.1C26 14.1 26 14.1 25.9 14.1H26ZM23.8 13.6C23.8 13.6 23.8 13.6 23.9 13.6H23.8ZM23.6 13.7C23.6 13.7 23.6 13.7 23.7 13.7H23.6ZM23.7 13.9C23.7 13.9 23.7 13.9 23.8 13.9H23.7ZM23.6 14C23.6 14 23.6 14 23.7 14H23.6ZM23.5 13.8C23.5 13.8 23.5 13.8 23.6 13.8H23.5ZM23.3 13.9C23.3 13.9 23.3 13.9 23.4 13.9H23.3ZM23.3 14.1C23.3 14.1 23.3 14.1 23.4 14.1H23.3ZM23.3 14.3C23.3 14.3 23.3 14.3 23.4 14.3H23.3ZM23.5 14.5C23.5 14.5 23.5 14.5 23.6 14.5H23.5ZM23.5 14.2C23.5 14.2 23.5 14.2 23.6 14.2H23.5ZM23.7 14.6C23.7 14.6 23.7 14.6 23.8 14.6H23.7ZM23.7 14.4C23.7 14.4 23.7 14.4 23.8 14.4H23.7ZM23.9 14.5C23.9 14.5 23.9 14.5 24 14.5H23.9ZM23.9 14.4C23.9 14.4 23.9 14.4 24 14.4H23.9ZM24.1 14.6C24.1 14.6 24.1 14.6 24.2 14.6H24.1ZM24.1 14.4C24.1 14.4 24.1 14.4 24.2 14.4H24.1ZM24.1 14.3C24.1 14.3 24.1 14.3 24.2 14.3H24.1ZM24.2 14.6C24.2 14.6 24.2 14.6 24.3 14.6H24.2ZM24.3 14.5C24.3 14.5 24.3 14.5 24.4 14.5H24.3ZM24.3 14.3C24.3 14.3 24.3 14.3 24.4 14.3H24.3ZM24.5 14.5C24.5 14.5 24.5 14.5 24.6 14.5H24.5ZM24.5 14.3C24.5 14.3 24.5 14.3 24.6 14.3H24.5ZM24.5 14.2C24.5 14.2 24.5 14.2 24.6 14.2H24.5ZM24.7 14.5C24.7 14.5 24.7 14.5 24.8 14.5H24.7ZM24.7 14.3C24.7 14.3 24.7 14.3 24.8 14.3H24.7ZM24.7 14.2C24.7 14.2 24.7 14.2 24.8 14.2H24.7ZM24.9 14.5C24.9 14.5 24.9 14.5 25 14.5H24.9ZM24.9 14.3C24.9 14.3 24.9 14.3 25 14.3H24.9ZM24.9 14.1C24.9 14.1 24.9 14.1 25 14.1H24.9ZM25.1 14.4C25.1 14.4 25.1 14.4 25.2 14.4H25.1ZM25.1 14.2C25.1 14.2 25.1 14.2 25.2 14.2H25.1ZM25.3 14.2C25.3 14.2 25.3 14.2 25.4 14.2H25.3Z" fill="#002D18"/>
<path d="M16 39.1H8" stroke="#002D18" stroke-width="2" stroke-linecap="round" stroke-linejoin="round"/>
<path d="M21.5 29.6L25.5 33.6L37 22.1" stroke="#002D18" stroke-width="2" stroke-linecap="round" stroke-linejoin="round"/>
</svg>
