<svg xmlns="http://www.w3.org/2000/svg" width="48" height="32" viewBox="0 0 48 32" fill="none">
    <g clip-path="url(#clip0_6411_10306)">
        <path d="M47.5696 21.9354C47.1762 21.6731 46.8483 21.6731 46.4876 21.542C45.9958 21.4108 45.8319 20.7879 45.668 20.7223C45.3073 20.5912 44.9795 21.1485 44.75 21.0502C44.5205 20.9846 44.4549 20.2633 44.2582 20.1977C43.8975 20.0666 43.5369 20.6239 43.3073 20.5584C43.0778 20.4928 42.9795 19.7715 42.7828 19.7059C42.4221 19.5748 42.0287 20.1649 41.832 20.0666C41.6024 20.001 41.5369 19.2469 41.373 19.1813C40.9795 19.0502 40.6189 19.6403 40.291 19.5748C40.0615 19.542 39.6025 19.4436 38.9467 19.0502C38.7828 18.919 38.3894 18.624 38.3566 18.624C38.291 18.5912 38.1271 18.5584 38.1599 18.8862C38.2582 19.6403 39.5697 20.1977 41.0779 20.6239C42.586 21.0502 44.0942 21.4764 45.0123 21.9026C45.5696 22.1649 45.8319 22.46 45.6024 22.7878C45.4385 23.0174 45.045 23.0501 44.6516 22.8534C44.1926 22.6239 44.1598 22.2961 43.8647 22.2305C43.5041 22.1649 43.0778 22.8206 42.8155 22.7551C42.4549 22.6567 42.4221 21.9026 42.0943 21.837C41.668 21.7387 41.209 22.3616 40.9467 22.2961C40.6844 22.2305 40.5861 21.4436 40.3238 21.378C39.8976 21.2797 39.4385 21.9354 39.1762 21.8698C38.914 21.8043 38.75 21.0174 38.5205 20.919C38.0943 20.7551 37.5041 21.4108 36.914 21.0829C34.9796 19.7715 35.3402 19.083 33.8648 18.6567C33.1107 18.4272 32.1271 18.6895 31.5698 18.7551C30.2583 18.8862 30.2911 17.7387 30.2911 17.7387C30.6845 17.8371 31.2091 18.0666 32.1927 17.7059C33.2419 17.3125 33.8648 17.2469 35.2419 17.7059C36.4222 18.0994 37.1107 17.7387 37.5041 17.6404C37.7009 17.5748 37.8648 17.4764 38.2254 17.7059C38.6189 17.9354 38.9795 18.1977 39.1435 18.1322C39.4385 18.001 39.3402 17.2141 39.832 17.0502C40.0615 16.9846 40.6844 17.6076 40.9467 17.4764C41.209 17.3781 41.1434 16.5584 41.6352 16.3945C41.8647 16.3289 42.4877 16.9518 42.75 16.8207C43.0123 16.7223 42.9467 15.9027 43.4385 15.7387C43.668 15.6732 44.291 16.2961 44.5533 16.165C44.8155 16.0666 44.75 15.2469 45.2418 15.083C45.4713 15.0174 46.0942 15.6404 46.3565 15.5092C46.6188 15.4109 46.586 15.2142 46.8155 14.6568C46.8483 14.5584 46.9467 14.4273 47.045 14.3617C47.3401 14.0994 47.7991 13.5748 47.5368 12.9847C47.3073 12.4601 46.7827 12.4601 45.7008 12.6896C44.7828 12.8863 39.0123 14.165 39.0123 14.165C38.1271 12.4929 37.5041 13.6076 36.1599 13.4437C35.3074 13.3453 33.9304 12.4929 31.7665 14.4929C30.5862 14.165 29.5698 14.4601 28.8157 14.8863C27.5042 14.3617 25.0452 13.083 20.324 13.083C18.9797 13.083 15.7994 13.3453 10.7503 14.6896C9.47163 15.0174 8.25854 14.9519 7.99624 14.1978C7.70116 13.3781 8.75032 12.5584 10.6847 11.6076C15.5371 9.27979 18.783 9.83716 25.3075 6.36178C28.8157 4.52574 29.0452 2.32904 29.0452 1.80445C29.0452 1.4438 28.6845 1.31266 28.455 1.60773C27.2747 3.24706 26.9797 3.11592 26.619 2.75526C26.1272 2.26347 25.7993 3.05034 25.2747 3.44378C24.8813 3.73886 24.783 3.37821 24.4879 3.18149C23.9305 2.82084 23.4715 3.87001 23.0125 4.09951C22.4551 4.36181 22.3567 4.06673 22.1928 3.87001C22.0617 3.73886 21.8322 3.73886 21.6682 3.90279C20.5535 4.95196 20.3896 4.8536 20.0617 4.49295C19.7994 4.23066 19.6682 4.03394 18.9469 4.78803C18.5207 5.21426 17.8322 5.70605 17.6355 5.18147C17.4388 4.65688 17.242 4.36181 16.2257 5.27983C15.6355 5.8372 15.2093 5.86999 15.0126 5.60769C14.8158 5.3454 14.8486 4.6241 13.8978 5.37819C13.0454 6.06671 12.6191 6.46014 12.3241 5.80441C12.0618 5.18147 11.406 5.70605 10.947 6.16507C10.6847 6.39457 10.2913 6.98473 9.93064 6.39457C9.60277 5.8372 9.0454 6.42736 8.38967 7.14866C7.99623 7.5421 7.73394 7.37817 7.37329 7.11588C6.94706 6.78801 6.45526 7.93554 5.83232 8.59127C5.70117 8.68963 5.53725 8.78799 5.14381 8.5257C4.65201 8.19783 3.86513 9.93552 3.63562 10.3617C3.27497 11.0503 2.84874 10.165 2.42252 10.8208C1.43892 12.2962 0.356972 13.9027 0.0618926 16.7551C-0.29876 20.1977 0.97991 22.9846 2.25859 24.001C2.25859 24.001 2.09465 24.3944 1.93072 24.8534C1.57007 25.837 1.40613 27.0829 1.89793 27.9681C2.35694 28.8206 3.40612 30.2304 3.79956 28.8862C3.99628 28.2304 4.16021 28.2632 4.78315 28.7222C5.73396 29.3779 5.50445 28.1648 5.70117 27.8042C5.83232 27.5419 5.99626 27.4435 6.78314 27.9681C7.24215 28.2632 7.37329 27.8698 7.50443 27.3124C7.93066 25.6075 7.11099 25.1813 6.32412 25.0173C5.73396 24.8862 5.14381 24.9845 5.14381 24.9845C6.42248 23.0501 6.58642 22.001 5.14381 21.0174C5.34053 20.919 5.53724 20.9846 5.70117 21.0502C6.06183 21.2141 6.3569 21.4764 6.52084 21.8043C6.71756 22.1649 7.04542 22.919 6.38969 24.296C6.65199 24.296 7.73394 24.3616 8.19295 25.4436C8.8159 25.6403 12.8486 25.9681 14.6191 25.6731C15.2748 25.5747 15.5372 24.9846 16.1929 24.3944C16.8814 23.7387 17.7011 23.0501 18.4224 23.5747C17.1765 24.0665 16.324 25.0501 16.324 26.2632C16.324 27.1812 16.6847 27.5419 17.3404 28.0993C17.9306 28.5911 18.1273 29.3779 18.324 29.9681C18.5863 30.7222 19.1765 30.755 19.3076 30.0337C19.4715 29.0173 19.7994 29.214 20.1928 29.6402C20.6846 30.1648 21.0453 30.0993 21.0453 29.3452C21.0453 28.6239 21.2748 28.2632 22.0617 29.1157C22.3895 29.4435 22.783 29.4435 22.783 28.7222C22.783 27.837 23.1764 27.9026 23.6682 28.296C23.8321 28.4271 23.9633 28.5255 24.0617 28.5255C24.4551 28.4927 24.7174 27.7386 24.4223 27.1485C24.2584 26.8534 24.0616 26.3944 22.0289 25.9681C21.3732 25.837 21.4715 25.378 21.4715 25.378C26.4551 25.6075 30.6517 24.9845 33.4386 23.3124C36.8484 24.1321 41.832 24.1977 43.4713 24.1977C45.1106 24.1649 46.3565 24.0993 47.3729 23.6075C48.2581 23.0501 48.0942 22.2633 47.5696 21.9354ZM37.3074 14.1978C37.4058 13.9355 37.6025 13.7715 37.832 13.7715C38.2254 13.7715 38.3894 14.1978 38.3894 14.2961L37.4713 14.4929C37.209 14.5912 37.209 14.4273 37.3074 14.1978ZM34.9468 14.1322C35.5697 14.1322 35.9632 14.624 36.0287 14.8535C36.0287 14.8535 35.0779 15.0502 34.6517 15.1486C34.3894 15.2142 34.1927 15.083 34.1599 14.8863C34.1599 14.624 34.4222 14.1322 34.9468 14.1322ZM8.5864 8.29619C9.01262 8.09947 9.47164 7.93554 9.96344 7.83718C10.0618 7.83718 10.1274 7.86997 10.0946 7.93554C10.029 8.23062 9.93063 8.55848 9.86506 8.88635C9.83227 8.95192 9.7667 9.0175 9.70113 8.95192C9.34048 8.78799 8.97984 8.59127 8.5864 8.39455C8.48804 8.39455 8.48804 8.32898 8.5864 8.29619ZM6.48805 9.27979C6.91427 9.08307 7.37329 8.91914 7.86509 8.82078C7.96345 8.82078 8.02903 8.85356 7.99624 8.91914C7.93067 9.247 7.83231 9.54208 7.76673 9.86995C7.76673 9.93552 7.66837 10.0011 7.6028 9.93552C7.24215 9.77159 6.88149 9.57487 6.48805 9.37815C6.42248 9.37815 6.42248 9.31258 6.48805 9.27979ZM7.40608 11.4437C7.50444 11.4109 7.57001 11.4765 7.53722 11.5421C7.47165 11.8699 7.37329 12.165 7.30771 12.4929C7.30771 12.5584 7.20935 12.624 7.14378 12.5584C6.78313 12.3945 6.42248 12.1978 6.02904 12.0011C5.93068 11.9683 5.93068 11.9027 6.02904 11.8371C6.45526 11.6732 6.91428 11.5421 7.40608 11.4437ZM6.52084 13.247C6.45526 13.542 6.35691 13.8699 6.29134 14.1978C6.25855 14.2633 6.19298 14.3289 6.12741 14.2633C5.76675 14.0994 5.40609 13.9027 5.01265 13.706C4.91429 13.6732 4.91429 13.6076 5.01265 13.542C5.43888 13.3453 5.8979 13.1814 6.38969 13.083C6.48805 13.1486 6.55362 13.1814 6.52084 13.247ZM4.61922 10.5257C5.04545 10.329 5.50445 10.165 5.99625 10.0667C6.09461 10.0339 6.16019 10.0995 6.12741 10.165C6.06183 10.4601 5.96347 10.788 5.8979 11.1158C5.86511 11.1814 5.79954 11.247 5.73396 11.1814C5.37331 11.0175 5.01266 10.8208 4.61922 10.624C4.55365 10.6568 4.55365 10.5913 4.61922 10.5257ZM3.20939 12.165C3.63562 11.9683 4.09463 11.8044 4.58643 11.706C4.68479 11.6732 4.75036 11.7388 4.71758 11.8044C4.652 12.1322 4.55365 12.4273 4.48808 12.7552C4.45529 12.8207 4.38972 12.8863 4.32414 12.8207C3.96349 12.6568 3.60283 12.4601 3.20939 12.2634C3.11103 12.2962 3.11103 12.2306 3.20939 12.165ZM2.65203 14.0666C3.07825 13.8699 3.53726 13.706 4.02906 13.6076C4.12742 13.5748 4.193 13.6404 4.16021 13.706C4.09464 14.0338 3.99627 14.3289 3.9307 14.6568C3.89792 14.7224 3.83234 14.7879 3.76677 14.7224C3.40612 14.5584 3.04547 14.3617 2.65203 14.165C2.58646 14.1978 2.58646 14.0994 2.65203 14.0666ZM2.91432 16.1322C2.81596 16.0994 2.81596 16.0338 2.91432 15.9682C3.34054 15.7715 3.79956 15.6076 4.29136 15.5092C4.38972 15.5092 4.45529 15.542 4.4225 15.6076C4.35693 15.9355 4.25856 16.2305 4.19299 16.5584C4.1602 16.624 4.09463 16.6895 4.02906 16.624C3.66841 16.4928 3.30776 16.3289 2.91432 16.1322ZM5.34052 18.4272C5.30773 18.4928 5.24216 18.5584 5.17659 18.4928C4.81593 18.3289 4.45528 18.1322 4.06185 17.9354C3.96349 17.9027 3.96349 17.8371 4.06185 17.7715C4.48807 17.5748 4.94709 17.4109 5.43889 17.3125C5.53725 17.2797 5.60282 17.3453 5.57003 17.4109C5.50446 17.7715 5.40609 18.0994 5.34052 18.4272ZM5.24216 15.6076C5.1438 15.5748 5.1438 15.5092 5.24216 15.4437C5.66839 15.2469 6.12741 15.083 6.6192 14.9846C6.71756 14.9519 6.78313 15.0174 6.75035 15.083C6.68477 15.3781 6.58641 15.706 6.52084 16.0338C6.52084 16.0994 6.42248 16.165 6.3569 16.0994C5.99625 16.001 5.6356 15.8043 5.24216 15.6076ZM7.40608 19.4764C7.37329 19.542 7.30772 19.6076 7.24215 19.542C6.88149 19.378 6.52084 19.1813 6.12741 18.9846C6.02905 18.9518 6.02905 18.8863 6.12741 18.8207C6.55363 18.624 7.01264 18.46 7.50443 18.3617C7.60279 18.3617 7.66837 18.3944 7.63558 18.46C7.53722 18.8535 7.47165 19.1485 7.40608 19.4764ZM7.83231 17.4764C7.79952 17.542 7.73395 17.6076 7.66838 17.542C7.30772 17.3781 6.94706 17.1813 6.55363 16.9846C6.45527 16.9518 6.45527 16.8863 6.55363 16.8207C6.97985 16.624 7.43887 16.46 7.93067 16.3617C8.02903 16.3289 8.09459 16.3945 8.0618 16.46C7.99623 16.8207 7.93067 17.1486 7.83231 17.4764ZM9.89786 18.46C9.83229 18.7879 9.73392 19.083 9.66835 19.4108C9.63556 19.4764 9.56999 19.542 9.50442 19.4764C9.14376 19.3125 8.7831 19.1158 8.38967 18.919C8.29131 18.8862 8.29131 18.8207 8.38967 18.7551C8.81589 18.5584 9.27491 18.3944 9.7667 18.2961C9.83228 18.3289 9.89786 18.3944 9.89786 18.46ZM9.96344 17.3781C9.60278 17.2141 9.24212 17.0174 8.84869 16.8207C8.75033 16.7879 8.75033 16.7223 8.84869 16.6568C9.27491 16.46 9.73393 16.2961 10.2257 16.1978C10.3241 16.1978 10.3896 16.2305 10.3569 16.2961C10.2913 16.624 10.1929 16.9191 10.1274 17.2469C10.1274 17.3781 10.0618 17.4436 9.96344 17.3781ZM11.7339 19.9682C11.6683 20.2633 11.57 20.5912 11.5044 20.919C11.4716 20.9846 11.406 21.0502 11.3405 20.9846C10.9798 20.8207 10.6192 20.6239 10.2257 20.4272C10.1274 20.3944 10.1274 20.3289 10.2257 20.2633C10.6519 20.0666 11.111 19.9026 11.6028 19.8043C11.7011 19.8371 11.7667 19.9026 11.7339 19.9682ZM12.1929 17.9027C12.1273 18.1977 12.029 18.5256 11.9634 18.8535C11.9306 18.919 11.865 18.9846 11.7995 18.919C11.4388 18.7551 11.0782 18.5584 10.6847 18.3617C10.5864 18.3289 10.5864 18.2633 10.6847 18.1977C11.1109 18.001 11.57 17.8371 12.0618 17.7387C12.1601 17.7715 12.2257 17.8043 12.1929 17.9027ZM12.488 16.6568C12.4552 16.7223 12.3896 16.7879 12.3241 16.7223C11.9634 16.5584 11.6028 16.3617 11.2093 16.165C11.111 16.1322 11.111 16.0666 11.2093 16.001C11.6355 15.8043 12.0946 15.6404 12.5864 15.542C12.6847 15.5092 12.7503 15.5748 12.7175 15.6404C12.6191 16.0338 12.5536 16.3289 12.488 16.6568ZM13.8978 20.2305C13.8978 20.2961 13.7995 20.3616 13.7339 20.2961C13.3732 20.1321 13.0126 19.9354 12.6191 19.7387C12.5208 19.7059 12.5208 19.6403 12.6191 19.5748C13.0454 19.378 13.5044 19.2141 13.9962 19.1158C14.0945 19.1158 14.1601 19.1485 14.1273 19.2141C14.029 19.5748 13.9634 19.9026 13.8978 20.2305ZM14.324 18.2305C14.324 18.2961 14.2257 18.3617 14.1601 18.2961C13.7995 18.1322 13.4388 17.9354 13.0454 17.7387C12.947 17.7059 12.947 17.6404 13.0454 17.5748C13.4716 17.3781 13.9306 17.2141 14.4224 17.1158C14.5208 17.1158 14.5863 17.1486 14.5536 17.2141C14.488 17.5748 14.3896 17.9027 14.324 18.2305ZM14.6519 16.1978C14.2913 16.0338 13.9306 15.8371 13.5372 15.6404C13.4388 15.6076 13.4388 15.542 13.5372 15.4764C13.9634 15.2797 14.4224 15.1158 14.9142 15.0174C15.0126 15.0174 15.0781 15.0502 15.0454 15.1158C14.9798 15.4109 14.8814 15.7387 14.8158 16.0666C14.7831 16.1978 14.7175 16.2305 14.6519 16.1978ZM16.5207 18.7551C16.4552 19.0502 16.3568 19.378 16.2912 19.7059C16.2584 19.7715 16.1929 19.8371 16.1273 19.7715C15.7667 19.6076 15.406 19.4108 15.0126 19.2141C14.9142 19.1813 14.9142 19.1158 15.0126 19.0502C15.4388 18.8535 15.8978 18.6895 16.3896 18.5912C16.4552 18.6567 16.5207 18.6895 16.5207 18.7551ZM16.947 16.7551C16.8814 17.0502 16.783 17.3781 16.7175 17.7059C16.6847 17.7715 16.6191 17.8371 16.5535 17.7715C16.1929 17.6076 15.8322 17.4109 15.4388 17.2141C15.3404 17.1813 15.3404 17.1158 15.4388 17.0502C15.865 16.8535 16.324 16.6896 16.8158 16.5912C16.9142 16.624 16.9798 16.6896 16.947 16.7551ZM17.0125 15.8043C16.6519 15.6404 16.2912 15.4437 15.8978 15.2469C15.7994 15.2142 15.7994 15.1486 15.8978 15.083C16.324 14.8863 16.783 14.7224 17.2748 14.624C17.3732 14.5912 17.4388 14.6568 17.406 14.7224C17.3404 15.0174 17.2421 15.3453 17.1765 15.6732C17.1765 15.8043 17.0781 15.8371 17.0125 15.8043ZM18.8486 18.5256C18.783 18.8535 18.6846 19.1485 18.6191 19.4764C18.6191 19.542 18.5207 19.6076 18.4551 19.542C18.0945 19.378 17.7338 19.1813 17.3404 18.9846C17.2421 18.9518 17.2421 18.8863 17.3404 18.8207C17.7666 18.624 18.2256 18.46 18.7174 18.3617C18.783 18.3945 18.8486 18.46 18.8486 18.5256ZM19.2748 16.5256C19.2092 16.8535 19.1109 17.1486 19.0453 17.4764C19.0125 17.542 18.9469 17.6076 18.8814 17.542C18.5207 17.3781 18.1601 17.1813 17.7666 16.9846C17.6683 16.9518 17.6683 16.8863 17.7666 16.8207C18.1929 16.624 18.6519 16.46 19.1437 16.3617C19.242 16.3945 19.3076 16.46 19.2748 16.5256ZM19.5043 15.542C19.5043 15.6076 19.406 15.6732 19.3404 15.6076C18.9797 15.4437 18.6191 15.2469 18.2256 15.0502C18.1273 15.0174 18.1273 14.9519 18.2256 14.8863C18.6519 14.6896 19.1109 14.5256 19.6027 14.4273C19.701 14.4273 19.7666 14.4601 19.7338 14.5256C19.6355 14.8863 19.5699 15.2142 19.5043 15.542ZM21.1436 18.624C21.0781 18.919 20.9797 19.2469 20.9141 19.5748C20.8813 19.6403 20.8158 19.7059 20.7502 19.6403C20.3895 19.4764 20.0289 19.2797 19.6355 19.083C19.5371 19.0502 19.5371 18.9846 19.6355 18.919C20.0617 18.7223 20.5207 18.5584 21.0125 18.46C21.1108 18.4928 21.1764 18.5256 21.1436 18.624ZM21.6027 16.5912C21.5371 16.8863 21.4387 17.2141 21.3732 17.542C21.3404 17.6076 21.2748 17.6731 21.2092 17.6076C20.8486 17.4436 20.4879 17.2469 20.0945 17.0502C19.9961 17.0174 19.9961 16.9518 20.0945 16.8863C20.5207 16.6896 20.9797 16.5256 21.4715 16.4273C21.5371 16.46 21.6027 16.5256 21.6027 16.5912ZM22.0289 14.624C21.9633 14.9191 21.8649 15.2469 21.7994 15.5748C21.7666 15.6404 21.701 15.706 21.6354 15.6404C21.2748 15.4764 20.9141 15.2797 20.5207 15.083C20.4223 15.0502 20.4223 14.9846 20.5207 14.9191C20.9469 14.7224 21.4059 14.5584 21.8977 14.4601C21.9961 14.4929 22.0617 14.5584 22.0289 14.624ZM23.6026 17.9682C23.6026 18.0338 23.5043 18.0666 23.4387 18.0338C23.078 17.8699 22.7174 17.6731 22.3239 17.4764C22.2256 17.4436 22.2256 17.3781 22.3239 17.3125C22.7502 17.1158 23.2092 16.9518 23.701 16.8535C23.7993 16.8535 23.8649 16.8863 23.8321 16.9518C23.7666 17.3453 23.6682 17.6731 23.6026 17.9682ZM24.2911 14.9846C24.2256 15.3125 24.1272 15.6076 24.0617 15.9355C24.0289 16.001 23.9633 16.0666 23.8977 16.001C23.5371 15.8371 23.1764 15.6404 22.783 15.4437C22.6846 15.4109 22.6846 15.3453 22.783 15.2797C23.2092 15.083 23.6682 14.9191 24.16 14.8207C24.2256 14.8535 24.2911 14.9191 24.2911 14.9846ZM26.4223 15.7387C26.3567 16.0666 26.2584 16.3617 26.1928 16.6896C26.16 16.7551 26.0944 16.8207 26.0288 16.7551C25.6682 16.5912 25.3075 16.3945 24.9141 16.1978C24.8157 16.165 24.8157 16.0994 24.9141 16.0338C25.3403 15.8371 25.7993 15.6732 26.2911 15.5748C26.3567 15.6076 26.4223 15.6732 26.4223 15.7387Z" fill="white"/>
    </g>
    <defs>
        <clipPath id="clip0_6411_10306">
            <rect width="48" height="32" fill="white"/>
        </clipPath>
    </defs>
</svg>