<svg width="200" height="53" viewBox="0 0 200 53" xmlns="http://www.w3.org/2000/svg">
<path d="M150.494 52.7656V40.3115H152.46L158.996 49.4133V40.3115H161V52.7656H159.034L152.497 43.6638V52.7656H150.494Z" fill="black"/>
<path d="M146.689 52.7656V40.3115H148.693V52.7656H146.689Z" fill="black"/>
<path d="M134.084 52.7656L138.71 40.3115H141.201L145.789 52.7656H143.654L142.549 49.6942H137.324L136.219 52.7656H134.084ZM137.979 47.8776H141.912L139.946 42.409L137.979 47.8776Z" fill="black"/>
<path d="M120.772 52.7656V40.3115H122.457L126.989 45.4804L131.503 40.3115H133.188V52.7656H131.184V43.514L126.989 48.2896L122.776 43.514V52.7656H120.772Z" fill="black"/>
<path d="M107.986 52.7656V40.3115H115.159V42.1281H109.99V45.4991H114.841V47.2408H109.99V50.949H115.346V52.7656H107.986Z" fill="black"/>
<path d="M96.2438 52.7656V40.3115H100.27C104.091 40.3115 106.769 42.7648 106.769 46.5292C106.769 50.3122 104.091 52.7656 100.27 52.7656H96.2438ZM98.2477 50.949H100.27C102.873 50.949 104.709 49.2073 104.709 46.5292C104.709 43.8511 102.873 42.1281 100.27 42.1281H98.2477V50.949Z" fill="black"/>
<path d="M83.9345 52.7656V40.3115H85.9009L92.437 49.4133V40.3115H94.4409V52.7656H92.4745L85.9384 43.6638V52.7656H83.9345Z" fill="black"/>
<path d="M76.226 52.9716C72.4243 52.9716 69.7462 50.3122 69.7462 46.5292C69.7462 42.7648 72.4243 40.1055 76.226 40.1055C80.0278 40.1055 82.7247 42.7648 82.7247 46.5292C82.7247 50.3122 80.0466 52.9716 76.226 52.9716ZM71.8062 46.5292C71.8062 49.2073 73.6416 51.0426 76.226 51.0426C78.8292 51.0426 80.6646 49.2073 80.6646 46.5292C80.6646 43.8511 78.8292 42.0344 76.226 42.0344C73.6416 42.0344 71.8062 43.8511 71.8062 46.5292Z" fill="black"/>
<path d="M63.4595 52.9716C59.6577 52.9716 56.9796 50.3122 56.9796 46.5292C56.9796 42.7648 59.6577 40.1055 63.4595 40.1055C66.3062 40.1055 68.5161 41.585 69.2278 44.0383L67.1677 44.3754C66.6433 42.8585 65.2387 42.0344 63.4595 42.0344C60.8751 42.0344 59.0397 43.8511 59.0397 46.5292C59.0397 49.2073 60.8751 51.0426 63.4595 51.0426C65.1263 51.0426 66.4373 50.3122 67.0928 48.9263L69.1341 49.4133C68.2165 51.6419 66.1376 52.9716 63.4595 52.9716Z" fill="black"/>
<path d="M48.7624 52.7656V40.3115H55.9353V42.1281H50.7663V45.4991H55.6169V47.2408H50.7663V50.949H56.1225V52.7656H48.7624Z" fill="black"/>
<path d="M43.5322 52.9716C40.8541 52.9716 39.1686 51.4546 39 49.3196L40.9477 49.0574C41.1163 50.3309 42.0714 51.1737 43.5322 51.1737C44.6746 51.1737 45.4799 50.5557 45.4799 49.6193C45.4799 47.2221 39.3184 47.4843 39.3184 43.5327C39.3184 41.3415 40.929 40.1055 43.27 40.1055C45.5735 40.1055 47.2965 41.4351 47.2965 43.8323L45.4612 44.0758C45.3488 42.5963 44.4686 41.9033 43.27 41.9033C42.2587 41.9033 41.3785 42.4465 41.3785 43.4952C41.3785 45.8924 47.54 45.8175 47.54 49.5256C47.54 51.6045 45.8919 52.9716 43.5322 52.9716Z" fill="black"/>
<g clip-path="url(#clip0_63_40)">
<path d="M103.651 31C111.903 31 119.221 25.4464 119.221 16C119.221 6.55363 111.903 1 103.651 1C95.3979 1 88.0796 6.55363 88.0796 16C88.0796 25.4464 95.3979 31 103.651 31ZM50.346 30.3772H56.3668L42.5086 1.57093H36.7474L23.9273 30.3772H29.2734L32.0761 23.8893H47.3875L50.346 30.3772ZM199.827 1.57093H177.976V30.3772H200.294V25.7578H183.114V18.2837H197.751V13.6644H183.114V6.19031H199.879V1.57093H199.827ZM123.166 27.5225C124.36 28.4567 127.837 30.9481 134.014 30.9481C140.242 30.9481 145.277 27.5744 145.277 22.3322C145.277 11.3806 129.394 14.8581 129.394 8.88927C129.394 7.22837 130.796 5.82699 134.429 5.82699C138.841 5.82699 141.696 7.79931 142.785 8.68166L144.914 4.4256C143.616 3.17993 139.567 1 134.429 1C126.747 1 123.581 5.30796 123.581 9.56401C123.581 19.5294 139.464 16.6747 139.464 22.5917C139.464 25.083 136.972 26.173 134.118 26.173C129.81 26.173 126.384 24.2526 124.879 23.1626L123.166 27.5225ZM73.0277 6.13841C77.3356 6.13841 79.7751 8.47405 81.1246 9.71972L84.7059 6.19031C83.5121 4.89273 80.0865 1 72.9239 1C64.6713 1 57.3529 6.55363 57.3529 16C57.3529 25.4464 64.6194 31 72.872 31C79.2561 31 83.564 27.5744 84.9654 26.3287L82.1107 22.2803C79.827 24.2007 76.2457 25.8616 72.9758 25.8616C67.2664 25.8616 62.9585 21.5536 62.9585 16C62.9066 10.4464 67.2145 6.13841 73.0277 6.13841ZM103.651 25.8616C97.9412 25.8616 93.6332 21.5536 93.6332 16C93.6332 10.4464 97.9412 6.13841 103.651 6.13841C109.36 6.13841 113.668 10.4464 113.668 16C113.668 21.5536 109.36 25.8616 103.651 25.8616ZM158.201 6.19031V30.3772H163.339V6.19031H173.408V1.57093H148.391V6.19031H158.201ZM5.13841 1.57093H0V30.3772H20.4498V25.7578H5.13841V1.57093ZM39.4464 6.60553L45.3114 19.4256H33.9965L39.4464 6.60553Z" fill="black"/>
</g>
<defs>
<clipPath id="clip0_63_40">
<rect width="200" height="32" fill="black"/>
</clipPath>
</defs>
</svg>
